<svg xmlns="http://www.w3.org/2000/svg" xmlns:xlink="http://www.w3.org/1999/xlink" width="1920" zoomAndPan="magnify" viewBox="0 0 1440 809.999993" height="1080" preserveAspectRatio="xMidYMid meet" version="1.0"><defs><g/><clipPath id="846b3bb682"><path d="M 0 0 L 281 0 L 281 395 L 0 395 Z M 0 0 " clip-rule="nonzero"/></clipPath><clipPath id="18e548387b"><path d="M 162.539062 -84.589844 L 356.414062 271.84375 L -0.679688 466.078125 L -194.554688 109.640625 Z M 162.539062 -84.589844 " clip-rule="nonzero"/></clipPath><clipPath id="c3964613e9"><path d="M 162.539062 -84.589844 L 356.414062 271.84375 L -0.679688 466.078125 L -194.554688 109.640625 Z M 162.539062 -84.589844 " clip-rule="nonzero"/></clipPath><clipPath id="c7db95e526"><path d="M 1172.214844 564.691406 L 1440 564.691406 L 1440 810 L 1172.214844 810 Z M 1172.214844 564.691406 " clip-rule="nonzero"/></clipPath><clipPath id="9e9b16d09e"><path d="M 1188.019531 548.203125 L 1440 548.203125 L 1440 810 L 1188.019531 810 Z M 1188.019531 548.203125 " clip-rule="nonzero"/></clipPath><clipPath id="c61305c036"><rect x="0" width="653" y="0" height="88"/></clipPath></defs><rect x="-144" width="1728" fill="#ffffff" y="-80.999999" height="971.999992" fill-opacity="1"/><rect x="-144" width="1728" fill="#03021a" y="-80.999999" height="971.999992" fill-opacity="1"/><g clip-path="url(#846b3bb682)"><g clip-path="url(#18e548387b)"><g clip-path="url(#c3964613e9)"><path fill="#a33e2f" d="M 105.40625 -9.953125 C 138.574219 -6.71875 171.257812 5.441406 199.023438 25.160156 C 212.800781 35.074219 225.515625 46.765625 236.324219 59.863281 C 247.097656 73.070312 256.21875 87.636719 263.304688 103.035156 C 270.320312 118.472656 275.375 134.878906 278.230469 151.472656 C 280.941406 168.144531 281.5625 185.035156 279.890625 201.601562 C 276.613281 234.703125 264.636719 266.367188 245.941406 292.285156 C 244.144531 294.738281 242.371094 292.660156 243.917969 290.253906 C 260.765625 263.3125 270.65625 232.046875 272.703125 200.078125 C 273.671875 184.074219 272.644531 167.960938 269.742188 152.128906 C 266.703125 136.375 261.785156 120.902344 255.015625 106.253906 C 248.175781 91.644531 239.550781 77.820312 229.375 65.207031 C 219.128906 52.636719 207.296875 41.386719 194.25 31.625 C 168.09375 12.324219 137.050781 -0.546875 104.707031 -4.96875 C 98.773438 -5.886719 99.265625 -10.574219 105.40625 -9.953125 Z M -88.460938 292.066406 C -101.929688 268.992188 -110.789062 243.046875 -114.027344 216.4375 C -117.335938 189.867188 -115.230469 162.746094 -108.003906 137.074219 C -100.78125 111.40625 -88.546875 87.160156 -72.105469 66.242188 C -55.703125 45.253906 -35.023438 27.558594 -11.875 14.230469 C -8.003906 12.03125 -9.074219 9.390625 -13.195312 11.632812 C -37.191406 24.589844 -58.671875 42.167969 -75.898438 63.332031 C -93.128906 84.492188 -106.035156 109.199219 -113.636719 135.53125 C -121.234375 161.867188 -123.457031 189.785156 -119.832031 217.109375 C -116.28125 244.46875 -106.75 270.972656 -92.363281 294.371094 C -88.421875 300.429688 -84.847656 298.023438 -88.460938 292.066406 Z M 169.574219 366.617188 C 142.542969 379.753906 112.601562 387.195312 82.25 387.953125 C 51.925781 388.601562 21.234375 382.636719 -6.445312 369.691406 C -11.375 367.398438 -13.082031 370.355469 -7.964844 372.820312 C 19.8125 386.632812 50.996094 394.175781 82.355469 394.25 C 113.640625 394.183594 145.09375 386.472656 172.019531 371.457031 C 179.375 367.363281 177.085938 362.988281 169.574219 366.617188 Z M 236.507812 252.925781 C 229.007812 270.636719 218.894531 287.101562 206.582031 301.71875 C 194.121094 316.234375 179.601562 328.832031 163.375 339.132812 C 161.425781 340.464844 162.738281 341.6875 164.65625 340.644531 C 181.917969 331.902344 197.726562 319.984375 211.316406 305.683594 C 224.761719 291.277344 235.835938 274.382812 243.78125 255.96875 C 251.617188 237.523438 256.292969 217.664062 257.40625 197.527344 C 258.523438 177.394531 255.90625 157.167969 249.992188 138.003906 C 247.933594 131.84375 243.960938 133.175781 245.503906 139.0625 C 250.105469 158.023438 251.832031 177.625 250.144531 196.875 C 248.5625 216.15625 243.96875 235.140625 236.507812 252.925781 Z M -96.191406 139.492188 C -101.96875 158.847656 -104.378906 179.132812 -103.609375 199.347656 C -102.660156 219.558594 -98.59375 239.730469 -91.097656 258.589844 C -89.65625 262.59375 -87.257812 263.960938 -86.003906 263.554688 C -84.609375 263.074219 -84.21875 260.742188 -85.582031 256.878906 C -92.515625 238.542969 -96.304688 219.046875 -97.121094 199.59375 C -97.683594 180.097656 -95.425781 160.539062 -89.804688 141.914062 C -78.855469 104.640625 -55.566406 71.246094 -24.339844 48.550781 C 6.808594 25.714844 45.371094 13.121094 83.929688 14.070312 C 122.546875 14.621094 160.789062 28.363281 191.269531 52.222656 C 195.550781 55.695312 198.429688 53.023438 193.992188 49.269531 C 163.222656 24.367188 124.1875 9.675781 84.355469 8.589844 C 44.582031 7.101562 4.496094 19.601562 -27.898438 43.027344 C -60.449219 66.164062 -84.816406 100.789062 -96.191406 139.492188 Z M 104.058594 364.207031 C 89.6875 365.390625 75.214844 365.710938 60.71875 364.292969 C 53.492188 363.710938 46.320312 362.546875 39.140625 361.199219 C 32.027344 359.636719 24.941406 357.960938 18.054688 355.628906 C 12.453125 353.792969 11.5625 358.421875 17.320312 360.542969 C 31.179688 365.53125 45.640625 369.085938 60.363281 370.75 C 75.054688 372.523438 89.925781 372.265625 104.402344 369.917969 C 108.328125 369.347656 110.222656 367.582031 110.140625 366.242188 C 110.019531 364.835938 108.070312 363.960938 104.058594 364.207031 Z M 104.058594 364.207031 " fill-opacity="1" fill-rule="nonzero"/></g></g></g><g clip-path="url(#c7db95e526)"><path fill="#a33e2f" d="M 1325.570312 564.839844 C 1410.269531 564.839844 1478.929688 633.5 1478.929688 718.195312 C 1478.929688 802.890625 1410.269531 871.550781 1325.570312 871.550781 C 1240.875 871.550781 1172.214844 802.890625 1172.214844 718.195312 C 1172.214844 633.5 1240.875 564.839844 1325.570312 564.839844 " fill-opacity="1" fill-rule="nonzero"/></g><g clip-path="url(#9e9b16d09e)"><path fill="#ffffff" d="M 1494.65625 706.617188 C 1494.5625 737.453125 1484.992188 767.328125 1467.25 792.539062 C 1450.175781 816.796875 1425.347656 835.578125 1397.542969 845.796875 C 1368.234375 856.5625 1335.890625 857.617188 1305.867188 849.195312 C 1276.921875 841.074219 1251.179688 823.8125 1231.972656 800.78125 C 1192.066406 752.917969 1187.707031 682.824219 1219.71875 629.742188 C 1235.171875 604.121094 1258.464844 583.855469 1285.605469 571.40625 C 1313.675781 558.53125 1346.03125 555.257812 1376.21875 561.390625 C 1405.808594 567.398438 1432.890625 582.648438 1453.761719 604.390625 C 1474.742188 626.242188 1488.277344 654.371094 1493.011719 684.226562 C 1494.183594 691.617188 1494.636719 699.132812 1494.65625 706.617188 C 1494.679688 713.261719 1504.984375 713.265625 1504.964844 706.617188 C 1504.867188 675.304688 1495.617188 644.496094 1478.195312 618.457031 C 1461.296875 593.203125 1437.074219 573.042969 1409.167969 561.039062 C 1379.773438 548.398438 1347.179688 545.109375 1315.777344 551.085938 C 1285.648438 556.820312 1257.597656 571.945312 1235.652344 593.269531 C 1190.230469 637.386719 1175.714844 706.871094 1199.308594 765.570312 C 1210.757812 794.058594 1230.351562 818.511719 1255.332031 836.308594 C 1280.714844 854.394531 1311.5 864.210938 1342.585938 865.078125 C 1405.25 866.820312 1464.476562 829.535156 1490.558594 772.664062 C 1500.058594 751.960938 1504.894531 729.386719 1504.964844 706.617188 C 1504.984375 699.96875 1494.679688 699.972656 1494.65625 706.617188 " fill-opacity="1" fill-rule="nonzero"/></g><g transform="matrix(1, 0, 0, 1, 372, 146)"><g clip-path="url(#c61305c036)"><g fill="#ffffff" fill-opacity="1"><g transform="translate(0.63764, 54.980863)"><g><path d="M 22.4375 0.59375 C 18.46875 0.59375 14.960938 -0.226562 11.921875 -1.875 C 8.878906 -3.53125 6.515625 -5.878906 4.828125 -8.921875 C 3.140625 -11.960938 2.296875 -15.546875 2.296875 -19.671875 C 2.296875 -22.765625 2.832031 -25.644531 3.90625 -28.3125 C 4.988281 -30.988281 6.488281 -33.335938 8.40625 -35.359375 C 10.332031 -37.378906 12.59375 -38.957031 15.1875 -40.09375 C 17.78125 -41.226562 20.566406 -41.796875 23.546875 -41.796875 C 25.472656 -41.796875 27.039062 -41.609375 28.25 -41.234375 C 29.46875 -40.867188 30.453125 -40.6875 31.203125 -40.6875 C 31.910156 -40.6875 32.429688 -40.851562 32.765625 -41.1875 C 33.097656 -41.519531 33.554688 -41.6875 34.140625 -41.6875 C 34.691406 -41.6875 35.113281 -41.488281 35.40625 -41.09375 C 35.707031 -40.695312 36.050781 -39.875 36.4375 -38.625 C 36.757812 -37.519531 37.066406 -36.335938 37.359375 -35.078125 C 37.648438 -33.828125 37.929688 -32.414062 38.203125 -30.84375 C 38.285156 -30.101562 38.25 -29.546875 38.09375 -29.171875 C 37.9375 -28.796875 37.582031 -28.570312 37.03125 -28.5 C 36.5625 -28.457031 36.148438 -28.625 35.796875 -29 C 35.441406 -29.375 34.972656 -29.988281 34.390625 -30.84375 C 32.773438 -33.320312 31.035156 -35.195312 29.171875 -36.46875 C 27.304688 -37.75 25.039062 -38.390625 22.375 -38.390625 C 19.78125 -38.390625 17.507812 -37.726562 15.5625 -36.40625 C 13.625 -35.09375 12.113281 -33.269531 11.03125 -30.9375 C 9.957031 -28.601562 9.421875 -25.90625 9.421875 -22.84375 C 9.421875 -19.3125 10.046875 -16.113281 11.296875 -13.25 C 12.554688 -10.382812 14.34375 -8.109375 16.65625 -6.421875 C 18.976562 -4.734375 21.6875 -3.890625 24.78125 -3.890625 C 27.175781 -3.890625 29.34375 -4.335938 31.28125 -5.234375 C 33.226562 -6.140625 35.066406 -7.535156 36.796875 -9.421875 C 37.265625 -9.929688 37.6875 -10.113281 38.0625 -9.96875 C 38.4375 -9.832031 38.691406 -9.53125 38.828125 -9.0625 C 38.960938 -8.59375 38.851562 -8.066406 38.5 -7.484375 C 37.601562 -5.910156 36.3125 -4.515625 34.625 -3.296875 C 32.9375 -2.078125 31.039062 -1.125 28.9375 -0.4375 C 26.832031 0.25 24.664062 0.59375 22.4375 0.59375 Z M 22.4375 0.59375 "/></g></g></g><g fill="#ffffff" fill-opacity="1"><g transform="translate(41.381729, 54.980863)"><g><path d="M 21.671875 0.59375 C 17.859375 0.59375 14.5 -0.25 11.59375 -1.9375 C 8.6875 -3.625 6.410156 -5.941406 4.765625 -8.890625 C 3.117188 -11.835938 2.296875 -15.210938 2.296875 -19.015625 C 2.296875 -22.160156 2.832031 -25.113281 3.90625 -27.875 C 4.988281 -30.644531 6.507812 -33.066406 8.46875 -35.140625 C 10.4375 -37.222656 12.742188 -38.851562 15.390625 -40.03125 C 18.046875 -41.207031 20.960938 -41.796875 24.140625 -41.796875 C 28.066406 -41.796875 31.460938 -40.921875 34.328125 -39.171875 C 37.191406 -37.429688 39.414062 -35.054688 41 -32.046875 C 42.59375 -29.046875 43.390625 -25.664062 43.390625 -21.90625 C 43.390625 -18.6875 42.859375 -15.710938 41.796875 -12.984375 C 40.742188 -10.253906 39.253906 -7.867188 37.328125 -5.828125 C 35.398438 -3.785156 33.113281 -2.203125 30.46875 -1.078125 C 27.820312 0.0351562 24.890625 0.59375 21.671875 0.59375 Z M 24.4375 -3.421875 C 27.175781 -3.421875 29.445312 -4.097656 31.25 -5.453125 C 33.0625 -6.804688 34.410156 -8.585938 35.296875 -10.796875 C 36.179688 -13.015625 36.625 -15.421875 36.625 -18.015625 C 36.625 -20.609375 36.28125 -23.097656 35.59375 -25.484375 C 34.90625 -27.878906 33.898438 -30.03125 32.578125 -31.9375 C 31.265625 -33.84375 29.6875 -35.351562 27.84375 -36.46875 C 26 -37.59375 23.921875 -38.15625 21.609375 -38.15625 C 18.859375 -38.15625 16.5625 -37.457031 14.71875 -36.0625 C 12.875 -34.664062 11.476562 -32.878906 10.53125 -30.703125 C 9.59375 -28.523438 9.125 -26.238281 9.125 -23.84375 C 9.125 -21.132812 9.476562 -18.550781 10.1875 -16.09375 C 10.894531 -13.644531 11.90625 -11.46875 13.21875 -9.5625 C 14.53125 -7.664062 16.140625 -6.164062 18.046875 -5.0625 C 19.953125 -3.96875 22.082031 -3.421875 24.4375 -3.421875 Z M 24.4375 -3.421875 "/></g></g></g><g fill="#ffffff" fill-opacity="1"><g transform="translate(87.189396, 54.980863)"><g><path d="M 35.328125 -41.21875 L 39.859375 -41.21875 C 40.796875 -41.21875 41.476562 -41.117188 41.90625 -40.921875 C 42.34375 -40.722656 42.5625 -40.347656 42.5625 -39.796875 C 42.5625 -39.328125 42.40625 -38.953125 42.09375 -38.671875 C 41.78125 -38.398438 41.40625 -38.109375 40.96875 -37.796875 C 40.539062 -37.484375 40.171875 -37.039062 39.859375 -36.46875 C 39.546875 -35.90625 39.390625 -35.070312 39.390625 -33.96875 L 39.390625 -2.296875 C 39.390625 -1.671875 39.25 -1.128906 38.96875 -0.671875 C 38.695312 -0.222656 38.347656 0 37.921875 0 L 37.390625 0 C 36.992188 0 36.644531 -0.0976562 36.34375 -0.296875 C 36.050781 -0.492188 35.648438 -0.882812 35.140625 -1.46875 L 9.125 -31.734375 L 9.1875 -7.234375 C 9.1875 -6.140625 9.351562 -5.304688 9.6875 -4.734375 C 10.019531 -4.171875 10.398438 -3.726562 10.828125 -3.40625 C 11.265625 -3.09375 11.640625 -2.804688 11.953125 -2.546875 C 12.265625 -2.296875 12.421875 -1.914062 12.421875 -1.40625 C 12.421875 -0.863281 12.191406 -0.492188 11.734375 -0.296875 C 11.285156 -0.0976562 10.613281 0 9.71875 0 L 5.125 0 C 3.351562 0 2.46875 -0.46875 2.46875 -1.40625 C 2.46875 -1.882812 2.625 -2.257812 2.9375 -2.53125 C 3.257812 -2.800781 3.625 -3.09375 4.03125 -3.40625 C 4.445312 -3.726562 4.8125 -4.171875 5.125 -4.734375 C 5.4375 -5.304688 5.59375 -6.140625 5.59375 -7.234375 L 5.59375 -32.203125 C 5.59375 -32.828125 5.582031 -33.328125 5.5625 -33.703125 C 5.539062 -34.078125 5.492188 -34.441406 5.421875 -34.796875 C 5.296875 -35.703125 5.046875 -36.367188 4.671875 -36.796875 C 4.304688 -37.222656 3.914062 -37.5625 3.5 -37.8125 C 3.09375 -38.070312 2.726562 -38.335938 2.40625 -38.609375 C 2.09375 -38.890625 1.9375 -39.285156 1.9375 -39.796875 C 1.9375 -40.742188 2.957031 -41.21875 5 -41.21875 L 8.71875 -41.21875 C 9.226562 -41.21875 9.65625 -41.117188 10 -40.921875 C 10.351562 -40.722656 10.707031 -40.425781 11.0625 -40.03125 L 35.859375 -11.015625 L 35.796875 -33.96875 C 35.796875 -35.070312 35.640625 -35.90625 35.328125 -36.46875 C 35.015625 -37.039062 34.640625 -37.484375 34.203125 -37.796875 C 33.773438 -38.109375 33.398438 -38.390625 33.078125 -38.640625 C 32.765625 -38.898438 32.609375 -39.285156 32.609375 -39.796875 C 32.609375 -40.347656 32.820312 -40.722656 33.25 -40.921875 C 33.6875 -41.117188 34.378906 -41.21875 35.328125 -41.21875 Z M 35.328125 -41.21875 "/></g></g></g><g fill="#ffffff" fill-opacity="1"><g transform="translate(131.819486, 54.980863)"><g><path d="M 22.375 -35.203125 L 22.375 -9.1875 C 22.375 -7.457031 22.550781 -6.191406 22.90625 -5.390625 C 23.257812 -4.585938 23.671875 -4.015625 24.140625 -3.671875 C 24.609375 -3.335938 25.019531 -3.035156 25.375 -2.765625 C 25.726562 -2.492188 25.90625 -2.039062 25.90625 -1.40625 C 25.90625 -0.894531 25.675781 -0.53125 25.21875 -0.3125 C 24.769531 -0.101562 23.976562 0 22.84375 0 L 14.890625 0 C 12.847656 0 11.828125 -0.46875 11.828125 -1.40625 C 11.828125 -2.039062 12.015625 -2.492188 12.390625 -2.765625 C 12.765625 -3.035156 13.1875 -3.335938 13.65625 -3.671875 C 14.125 -4.015625 14.546875 -4.585938 14.921875 -5.390625 C 15.296875 -6.191406 15.484375 -7.457031 15.484375 -9.1875 L 15.484375 -35.140625 C 15.484375 -36.085938 15.265625 -36.785156 14.828125 -37.234375 C 14.398438 -37.691406 13.65625 -37.921875 12.59375 -37.921875 C 11.1875 -37.921875 10.078125 -37.710938 9.265625 -37.296875 C 8.460938 -36.878906 7.773438 -36.25 7.203125 -35.40625 C 6.640625 -34.5625 6.023438 -33.492188 5.359375 -32.203125 C 4.578125 -30.671875 3.832031 -29.90625 3.125 -29.90625 C 2.53125 -29.90625 2.15625 -30.128906 2 -30.578125 C 1.84375 -31.035156 1.785156 -31.578125 1.828125 -32.203125 C 1.867188 -33.734375 1.957031 -35.03125 2.09375 -36.09375 C 2.226562 -37.15625 2.414062 -38.113281 2.65625 -38.96875 C 2.84375 -39.757812 3.238281 -40.332031 3.84375 -40.6875 C 4.457031 -41.039062 5.671875 -41.21875 7.484375 -41.21875 L 30.328125 -41.265625 C 32.171875 -41.265625 33.394531 -41.078125 34 -40.703125 C 34.601562 -40.335938 35.003906 -39.757812 35.203125 -38.96875 C 35.640625 -37.4375 35.914062 -35.203125 36.03125 -32.265625 C 36.070312 -31.640625 36.003906 -31.097656 35.828125 -30.640625 C 35.648438 -30.191406 35.265625 -29.96875 34.671875 -29.96875 C 34.003906 -29.96875 33.28125 -30.710938 32.5 -32.203125 C 31.832031 -33.492188 31.210938 -34.5625 30.640625 -35.40625 C 30.078125 -36.25 29.390625 -36.882812 28.578125 -37.3125 C 27.773438 -37.75 26.664062 -37.96875 25.25 -37.96875 C 24.238281 -37.96875 23.503906 -37.742188 23.046875 -37.296875 C 22.597656 -36.847656 22.375 -36.148438 22.375 -35.203125 Z M 22.375 -35.203125 "/></g></g></g><g fill="#ffffff" fill-opacity="1"><g transform="translate(166.145597, 54.980863)"><g><path d="M 10.015625 -10.359375 L 8.765625 -7.234375 C 8.296875 -6.054688 8.109375 -5.171875 8.203125 -4.578125 C 8.304688 -3.992188 8.515625 -3.566406 8.828125 -3.296875 C 9.140625 -3.023438 9.453125 -2.757812 9.765625 -2.5 C 10.085938 -2.25 10.25 -1.882812 10.25 -1.40625 C 10.25 -0.863281 10.007812 -0.492188 9.53125 -0.296875 C 9.0625 -0.0976562 8.492188 0 7.828125 0 L 2.765625 0 C 1.941406 0 1.285156 -0.0976562 0.796875 -0.296875 C 0.304688 -0.492188 0.0625 -0.847656 0.0625 -1.359375 C 0.0625 -1.867188 0.226562 -2.25 0.5625 -2.5 C 0.894531 -2.757812 1.316406 -3.023438 1.828125 -3.296875 C 2.335938 -3.566406 2.863281 -3.992188 3.40625 -4.578125 C 3.957031 -5.171875 4.472656 -6.054688 4.953125 -7.234375 L 15.78125 -34.5625 C 16.132812 -35.457031 16.234375 -36.140625 16.078125 -36.609375 C 15.921875 -37.085938 15.664062 -37.460938 15.3125 -37.734375 C 14.957031 -38.015625 14.613281 -38.300781 14.28125 -38.59375 C 13.945312 -38.882812 13.78125 -39.285156 13.78125 -39.796875 C 13.78125 -40.742188 14.367188 -41.21875 15.546875 -41.21875 L 21.546875 -41.21875 C 22.453125 -41.21875 23.082031 -40.785156 23.4375 -39.921875 L 36.265625 -7.359375 C 36.734375 -6.140625 37.222656 -5.234375 37.734375 -4.640625 C 38.242188 -4.054688 38.710938 -3.625 39.140625 -3.34375 C 39.578125 -3.070312 39.929688 -2.816406 40.203125 -2.578125 C 40.484375 -2.347656 40.625 -1.976562 40.625 -1.46875 C 40.625 -0.914062 40.394531 -0.53125 39.9375 -0.3125 C 39.488281 -0.101562 38.71875 0 37.625 0 L 29.4375 0 C 27.707031 0 26.84375 -0.453125 26.84375 -1.359375 C 26.84375 -1.898438 27.019531 -2.304688 27.375 -2.578125 C 27.726562 -2.859375 28.097656 -3.144531 28.484375 -3.4375 C 28.878906 -3.738281 29.144531 -4.179688 29.28125 -4.765625 C 29.425781 -5.359375 29.265625 -6.222656 28.796875 -7.359375 L 27.671875 -10.296875 C 27.515625 -10.734375 27.335938 -11.078125 27.140625 -11.328125 C 26.941406 -11.585938 26.578125 -11.765625 26.046875 -11.859375 C 25.515625 -11.960938 24.695312 -12.019531 23.59375 -12.03125 C 22.5 -12.050781 20.953125 -12.0625 18.953125 -12.0625 C 16.878906 -12.0625 15.269531 -12.050781 14.125 -12.03125 C 12.988281 -12.019531 12.15625 -11.960938 11.625 -11.859375 C 11.09375 -11.765625 10.726562 -11.597656 10.53125 -11.359375 C 10.34375 -11.128906 10.171875 -10.796875 10.015625 -10.359375 Z M 19.015625 -15.1875 C 21.253906 -15.1875 22.832031 -15.207031 23.75 -15.25 C 24.675781 -15.289062 25.1875 -15.414062 25.28125 -15.625 C 25.382812 -15.84375 25.335938 -16.207031 25.140625 -16.71875 L 18.78125 -32.90625 L 12.484375 -16.71875 C 12.285156 -16.207031 12.242188 -15.84375 12.359375 -15.625 C 12.484375 -15.414062 13.035156 -15.289062 14.015625 -15.25 C 14.992188 -15.207031 16.660156 -15.1875 19.015625 -15.1875 Z M 19.015625 -15.1875 "/></g></g></g><g fill="#ffffff" fill-opacity="1"><g transform="translate(207.419602, 54.980863)"><g><path d="M 5.65625 -41.21875 L 18.78125 -41.21875 C 22.90625 -41.21875 26.4375 -40.632812 29.375 -39.46875 C 32.320312 -38.3125 34.71875 -36.757812 36.5625 -34.8125 C 38.40625 -32.875 39.757812 -30.726562 40.625 -28.375 C 41.488281 -26.019531 41.921875 -23.664062 41.921875 -21.3125 C 41.921875 -18.488281 41.488281 -15.800781 40.625 -13.25 C 39.757812 -10.695312 38.441406 -8.421875 36.671875 -6.421875 C 34.910156 -4.421875 32.675781 -2.847656 29.96875 -1.703125 C 27.257812 -0.566406 24.039062 0 20.3125 0 L 5.65625 0 C 3.613281 0 2.59375 -0.46875 2.59375 -1.40625 C 2.59375 -1.957031 2.738281 -2.359375 3.03125 -2.609375 C 3.320312 -2.867188 3.679688 -3.125 4.109375 -3.375 C 4.546875 -3.632812 4.953125 -3.988281 5.328125 -4.4375 C 5.703125 -4.894531 5.945312 -5.554688 6.0625 -6.421875 C 6.144531 -6.773438 6.191406 -7.132812 6.203125 -7.5 C 6.222656 -7.875 6.234375 -8.378906 6.234375 -9.015625 L 6.234375 -32.203125 C 6.234375 -32.828125 6.222656 -33.328125 6.203125 -33.703125 C 6.191406 -34.078125 6.144531 -34.441406 6.0625 -34.796875 C 5.945312 -35.703125 5.703125 -36.367188 5.328125 -36.796875 C 4.953125 -37.222656 4.546875 -37.5625 4.109375 -37.8125 C 3.679688 -38.070312 3.320312 -38.335938 3.03125 -38.609375 C 2.738281 -38.890625 2.59375 -39.285156 2.59375 -39.796875 C 2.59375 -40.742188 3.613281 -41.21875 5.65625 -41.21875 Z M 19.671875 -3.0625 C 23.515625 -3.0625 26.515625 -3.753906 28.671875 -5.140625 C 30.828125 -6.535156 32.359375 -8.390625 33.265625 -10.703125 C 34.171875 -13.023438 34.625 -15.539062 34.625 -18.25 C 34.625 -22.019531 33.90625 -25.414062 32.46875 -28.4375 C 31.039062 -31.457031 29 -33.847656 26.34375 -35.609375 C 23.695312 -37.378906 20.53125 -38.265625 16.84375 -38.265625 C 15.382812 -38.265625 14.398438 -38.109375 13.890625 -37.796875 C 13.378906 -37.484375 13.125 -36.773438 13.125 -35.671875 L 13.125 -6.59375 C 13.125 -5.8125 13.28125 -5.15625 13.59375 -4.625 C 13.914062 -4.09375 14.546875 -3.695312 15.484375 -3.4375 C 16.421875 -3.1875 17.816406 -3.0625 19.671875 -3.0625 Z M 19.671875 -3.0625 "/></g></g></g><g fill="#ffffff" fill-opacity="1"><g transform="translate(251.696436, 54.980863)"><g><path d="M 21.671875 0.59375 C 17.859375 0.59375 14.5 -0.25 11.59375 -1.9375 C 8.6875 -3.625 6.410156 -5.941406 4.765625 -8.890625 C 3.117188 -11.835938 2.296875 -15.210938 2.296875 -19.015625 C 2.296875 -22.160156 2.832031 -25.113281 3.90625 -27.875 C 4.988281 -30.644531 6.507812 -33.066406 8.46875 -35.140625 C 10.4375 -37.222656 12.742188 -38.851562 15.390625 -40.03125 C 18.046875 -41.207031 20.960938 -41.796875 24.140625 -41.796875 C 28.066406 -41.796875 31.460938 -40.921875 34.328125 -39.171875 C 37.191406 -37.429688 39.414062 -35.054688 41 -32.046875 C 42.59375 -29.046875 43.390625 -25.664062 43.390625 -21.90625 C 43.390625 -18.6875 42.859375 -15.710938 41.796875 -12.984375 C 40.742188 -10.253906 39.253906 -7.867188 37.328125 -5.828125 C 35.398438 -3.785156 33.113281 -2.203125 30.46875 -1.078125 C 27.820312 0.0351562 24.890625 0.59375 21.671875 0.59375 Z M 24.4375 -3.421875 C 27.175781 -3.421875 29.445312 -4.097656 31.25 -5.453125 C 33.0625 -6.804688 34.410156 -8.585938 35.296875 -10.796875 C 36.179688 -13.015625 36.625 -15.421875 36.625 -18.015625 C 36.625 -20.609375 36.28125 -23.097656 35.59375 -25.484375 C 34.90625 -27.878906 33.898438 -30.03125 32.578125 -31.9375 C 31.265625 -33.84375 29.6875 -35.351562 27.84375 -36.46875 C 26 -37.59375 23.921875 -38.15625 21.609375 -38.15625 C 18.859375 -38.15625 16.5625 -37.457031 14.71875 -36.0625 C 12.875 -34.664062 11.476562 -32.878906 10.53125 -30.703125 C 9.59375 -28.523438 9.125 -26.238281 9.125 -23.84375 C 9.125 -21.132812 9.476562 -18.550781 10.1875 -16.09375 C 10.894531 -13.644531 11.90625 -11.46875 13.21875 -9.5625 C 14.53125 -7.664062 16.140625 -6.164062 18.046875 -5.0625 C 19.953125 -3.96875 22.082031 -3.421875 24.4375 -3.421875 Z M 24.4375 -3.421875 "/></g></g></g><g fill="#ffffff" fill-opacity="1"><g transform="translate(297.504104, 54.980863)"><g><path d="M 28.734375 -15.3125 L 33.5625 -6.828125 C 34.113281 -5.847656 34.671875 -5.113281 35.234375 -4.625 C 35.804688 -4.132812 36.316406 -3.75 36.765625 -3.46875 C 37.210938 -3.195312 37.570312 -2.921875 37.84375 -2.640625 C 38.125 -2.367188 38.265625 -1.957031 38.265625 -1.40625 C 38.265625 -0.46875 37.382812 0 35.625 0 L 28.078125 0 C 27.140625 0 26.425781 -0.101562 25.9375 -0.3125 C 25.445312 -0.53125 25.203125 -0.9375 25.203125 -1.53125 C 25.203125 -1.957031 25.347656 -2.328125 25.640625 -2.640625 C 25.929688 -2.960938 26.222656 -3.300781 26.515625 -3.65625 C 26.816406 -4.007812 26.984375 -4.445312 27.015625 -4.96875 C 27.054688 -5.5 26.820312 -6.195312 26.3125 -7.0625 L 22.546875 -13.828125 C 21.453125 -13.710938 20.273438 -13.65625 19.015625 -13.65625 L 13.828125 -13.65625 C 13.046875 -13.65625 12.65625 -13.265625 12.65625 -12.484375 L 12.65625 -9.1875 C 12.65625 -7.457031 12.832031 -6.191406 13.1875 -5.390625 C 13.539062 -4.585938 13.960938 -4.015625 14.453125 -3.671875 C 14.941406 -3.335938 15.363281 -3.035156 15.71875 -2.765625 C 16.070312 -2.492188 16.25 -2.039062 16.25 -1.40625 C 16.25 -0.894531 16.015625 -0.53125 15.546875 -0.3125 C 15.078125 -0.101562 14.269531 0 13.125 0 L 5.234375 0 C 3.160156 0 2.125 -0.46875 2.125 -1.40625 C 2.125 -2.039062 2.304688 -2.492188 2.671875 -2.765625 C 3.046875 -3.035156 3.476562 -3.335938 3.96875 -3.671875 C 4.457031 -4.015625 4.890625 -4.585938 5.265625 -5.390625 C 5.640625 -6.191406 5.828125 -7.457031 5.828125 -9.1875 L 5.828125 -32.203125 C 5.828125 -32.828125 5.816406 -33.328125 5.796875 -33.703125 C 5.773438 -34.078125 5.726562 -34.441406 5.65625 -34.796875 C 5.53125 -35.703125 5.28125 -36.367188 4.90625 -36.796875 C 4.539062 -37.222656 4.140625 -37.5625 3.703125 -37.8125 C 3.273438 -38.070312 2.90625 -38.335938 2.59375 -38.609375 C 2.28125 -38.890625 2.125 -39.285156 2.125 -39.796875 C 2.125 -40.742188 3.160156 -41.21875 5.234375 -41.21875 L 17.015625 -41.21875 C 21.296875 -41.21875 24.867188 -40.585938 27.734375 -39.328125 C 30.597656 -38.066406 32.742188 -36.367188 34.171875 -34.234375 C 35.609375 -32.097656 36.328125 -29.675781 36.328125 -26.96875 C 36.328125 -21.351562 33.796875 -17.46875 28.734375 -15.3125 Z M 18.78125 -16.78125 C 21.800781 -16.78125 24.269531 -17.503906 26.1875 -18.953125 C 28.113281 -20.410156 29.078125 -22.75 29.078125 -25.96875 C 29.078125 -28.320312 28.578125 -30.410156 27.578125 -32.234375 C 26.578125 -34.054688 25.15625 -35.5 23.3125 -36.5625 C 21.46875 -37.625 19.3125 -38.15625 16.84375 -38.15625 C 15.070312 -38.15625 13.929688 -38.046875 13.421875 -37.828125 C 12.910156 -37.609375 12.65625 -37.1875 12.65625 -36.5625 L 12.65625 -18.546875 C 12.65625 -17.921875 13.035156 -17.46875 13.796875 -17.1875 C 14.566406 -16.914062 16.226562 -16.78125 18.78125 -16.78125 Z M 18.78125 -16.78125 "/></g></g></g><g fill="#ffffff" fill-opacity="1"><g transform="translate(337.129489, 54.980863)"><g/></g></g><g fill="#ffffff" fill-opacity="1"><g transform="translate(348.905237, 54.980863)"><g><path d="M 5.65625 -41.21875 L 18.78125 -41.21875 C 22.90625 -41.21875 26.4375 -40.632812 29.375 -39.46875 C 32.320312 -38.3125 34.71875 -36.757812 36.5625 -34.8125 C 38.40625 -32.875 39.757812 -30.726562 40.625 -28.375 C 41.488281 -26.019531 41.921875 -23.664062 41.921875 -21.3125 C 41.921875 -18.488281 41.488281 -15.800781 40.625 -13.25 C 39.757812 -10.695312 38.441406 -8.421875 36.671875 -6.421875 C 34.910156 -4.421875 32.675781 -2.847656 29.96875 -1.703125 C 27.257812 -0.566406 24.039062 0 20.3125 0 L 5.65625 0 C 3.613281 0 2.59375 -0.46875 2.59375 -1.40625 C 2.59375 -1.957031 2.738281 -2.359375 3.03125 -2.609375 C 3.320312 -2.867188 3.679688 -3.125 4.109375 -3.375 C 4.546875 -3.632812 4.953125 -3.988281 5.328125 -4.4375 C 5.703125 -4.894531 5.945312 -5.554688 6.0625 -6.421875 C 6.144531 -6.773438 6.191406 -7.132812 6.203125 -7.5 C 6.222656 -7.875 6.234375 -8.378906 6.234375 -9.015625 L 6.234375 -32.203125 C 6.234375 -32.828125 6.222656 -33.328125 6.203125 -33.703125 C 6.191406 -34.078125 6.144531 -34.441406 6.0625 -34.796875 C 5.945312 -35.703125 5.703125 -36.367188 5.328125 -36.796875 C 4.953125 -37.222656 4.546875 -37.5625 4.109375 -37.8125 C 3.679688 -38.070312 3.320312 -38.335938 3.03125 -38.609375 C 2.738281 -38.890625 2.59375 -39.285156 2.59375 -39.796875 C 2.59375 -40.742188 3.613281 -41.21875 5.65625 -41.21875 Z M 19.671875 -3.0625 C 23.515625 -3.0625 26.515625 -3.753906 28.671875 -5.140625 C 30.828125 -6.535156 32.359375 -8.390625 33.265625 -10.703125 C 34.171875 -13.023438 34.625 -15.539062 34.625 -18.25 C 34.625 -22.019531 33.90625 -25.414062 32.46875 -28.4375 C 31.039062 -31.457031 29 -33.847656 26.34375 -35.609375 C 23.695312 -37.378906 20.53125 -38.265625 16.84375 -38.265625 C 15.382812 -38.265625 14.398438 -38.109375 13.890625 -37.796875 C 13.378906 -37.484375 13.125 -36.773438 13.125 -35.671875 L 13.125 -6.59375 C 13.125 -5.8125 13.28125 -5.15625 13.59375 -4.625 C 13.914062 -4.09375 14.546875 -3.695312 15.484375 -3.4375 C 16.421875 -3.1875 17.816406 -3.0625 19.671875 -3.0625 Z M 19.671875 -3.0625 "/></g></g></g><g fill="#ffffff" fill-opacity="1"><g transform="translate(393.182058, 54.980863)"><g><path d="M 33.09375 -11.359375 C 33.601562 -11.242188 33.914062 -10.988281 34.03125 -10.59375 C 34.144531 -10.207031 34.179688 -9.679688 34.140625 -9.015625 C 34.066406 -7.484375 33.953125 -6.1875 33.796875 -5.125 C 33.640625 -4.0625 33.441406 -3.097656 33.203125 -2.234375 C 33.003906 -1.492188 32.609375 -0.9375 32.015625 -0.5625 C 31.429688 -0.1875 30.21875 0 28.375 0 L 5.234375 0 C 3.160156 0 2.125 -0.46875 2.125 -1.40625 C 2.125 -1.957031 2.28125 -2.359375 2.59375 -2.609375 C 2.90625 -2.867188 3.273438 -3.125 3.703125 -3.375 C 4.140625 -3.632812 4.539062 -3.988281 4.90625 -4.4375 C 5.28125 -4.894531 5.53125 -5.554688 5.65625 -6.421875 C 5.726562 -6.773438 5.773438 -7.132812 5.796875 -7.5 C 5.816406 -7.875 5.828125 -8.378906 5.828125 -9.015625 L 5.828125 -32.203125 C 5.828125 -32.828125 5.816406 -33.328125 5.796875 -33.703125 C 5.773438 -34.078125 5.726562 -34.441406 5.65625 -34.796875 C 5.53125 -35.703125 5.28125 -36.367188 4.90625 -36.796875 C 4.539062 -37.222656 4.140625 -37.5625 3.703125 -37.8125 C 3.273438 -38.070312 2.90625 -38.335938 2.59375 -38.609375 C 2.28125 -38.890625 2.125 -39.285156 2.125 -39.796875 C 2.125 -40.742188 3.160156 -41.21875 5.234375 -41.21875 L 27.4375 -41.265625 C 29.125 -41.265625 30.25 -41.109375 30.8125 -40.796875 C 31.382812 -40.484375 31.789062 -39.992188 32.03125 -39.328125 C 32.34375 -38.546875 32.644531 -37.644531 32.9375 -36.625 C 33.226562 -35.601562 33.472656 -34.441406 33.671875 -33.140625 C 33.796875 -32.472656 33.816406 -31.921875 33.734375 -31.484375 C 33.660156 -31.054688 33.382812 -30.765625 32.90625 -30.609375 C 32.394531 -30.453125 31.941406 -30.53125 31.546875 -30.84375 C 31.160156 -31.164062 30.753906 -31.695312 30.328125 -32.4375 C 29.222656 -34.28125 28.003906 -35.671875 26.671875 -36.609375 C 25.335938 -37.554688 23.671875 -38.03125 21.671875 -38.03125 L 18.65625 -38.03125 C 16.9375 -38.03125 15.644531 -37.929688 14.78125 -37.734375 C 13.914062 -37.535156 13.34375 -37.238281 13.0625 -36.84375 C 12.789062 -36.457031 12.65625 -35.953125 12.65625 -35.328125 L 12.65625 -26.375 C 12.65625 -25.039062 13.046875 -24.222656 13.828125 -23.921875 C 14.617188 -23.628906 15.757812 -23.484375 17.25 -23.484375 L 19.375 -23.484375 C 20.3125 -23.484375 21.015625 -23.707031 21.484375 -24.15625 C 21.960938 -24.613281 22.316406 -25.144531 22.546875 -25.75 C 22.785156 -26.363281 23.03125 -26.894531 23.28125 -27.34375 C 23.539062 -27.800781 23.941406 -28.03125 24.484375 -28.03125 C 25.035156 -28.03125 25.410156 -27.789062 25.609375 -27.3125 C 25.804688 -26.84375 25.90625 -26 25.90625 -24.78125 L 25.90625 -18.546875 C 25.90625 -16.660156 25.429688 -15.71875 24.484375 -15.71875 C 23.941406 -15.71875 23.539062 -15.953125 23.28125 -16.421875 C 23.03125 -16.890625 22.785156 -17.421875 22.546875 -18.015625 C 22.316406 -18.609375 21.960938 -19.140625 21.484375 -19.609375 C 21.015625 -20.078125 20.3125 -20.3125 19.375 -20.3125 L 17.25 -20.3125 C 15.757812 -20.3125 14.617188 -20.171875 13.828125 -19.890625 C 13.046875 -19.617188 12.65625 -18.796875 12.65625 -17.421875 L 12.65625 -6 C 12.65625 -5.332031 12.800781 -4.789062 13.09375 -4.375 C 13.394531 -3.96875 13.984375 -3.664062 14.859375 -3.46875 C 15.742188 -3.269531 17.070312 -3.171875 18.84375 -3.171875 L 23.078125 -3.234375 C 24.609375 -3.234375 25.816406 -3.445312 26.703125 -3.875 C 27.585938 -4.3125 28.300781 -4.960938 28.84375 -5.828125 C 29.394531 -6.691406 29.96875 -7.769531 30.5625 -9.0625 C 31.03125 -10.082031 31.457031 -10.738281 31.84375 -11.03125 C 32.238281 -11.332031 32.65625 -11.441406 33.09375 -11.359375 Z M 33.09375 -11.359375 "/></g></g></g><g fill="#ffffff" fill-opacity="1"><g transform="translate(429.451385, 54.980863)"><g/></g></g><g fill="#ffffff" fill-opacity="1"><g transform="translate(441.227106, 54.980863)"><g><path d="M 22.4375 0.59375 C 18.46875 0.59375 14.960938 -0.226562 11.921875 -1.875 C 8.878906 -3.53125 6.515625 -5.878906 4.828125 -8.921875 C 3.140625 -11.960938 2.296875 -15.546875 2.296875 -19.671875 C 2.296875 -22.765625 2.832031 -25.644531 3.90625 -28.3125 C 4.988281 -30.988281 6.488281 -33.335938 8.40625 -35.359375 C 10.332031 -37.378906 12.59375 -38.957031 15.1875 -40.09375 C 17.78125 -41.226562 20.566406 -41.796875 23.546875 -41.796875 C 25.472656 -41.796875 27.039062 -41.609375 28.25 -41.234375 C 29.46875 -40.867188 30.453125 -40.6875 31.203125 -40.6875 C 31.910156 -40.6875 32.429688 -40.851562 32.765625 -41.1875 C 33.097656 -41.519531 33.554688 -41.6875 34.140625 -41.6875 C 34.691406 -41.6875 35.113281 -41.488281 35.40625 -41.09375 C 35.707031 -40.695312 36.050781 -39.875 36.4375 -38.625 C 36.757812 -37.519531 37.066406 -36.335938 37.359375 -35.078125 C 37.648438 -33.828125 37.929688 -32.414062 38.203125 -30.84375 C 38.285156 -30.101562 38.25 -29.546875 38.09375 -29.171875 C 37.9375 -28.796875 37.582031 -28.570312 37.03125 -28.5 C 36.5625 -28.457031 36.148438 -28.625 35.796875 -29 C 35.441406 -29.375 34.972656 -29.988281 34.390625 -30.84375 C 32.773438 -33.320312 31.035156 -35.195312 29.171875 -36.46875 C 27.304688 -37.75 25.039062 -38.390625 22.375 -38.390625 C 19.78125 -38.390625 17.507812 -37.726562 15.5625 -36.40625 C 13.625 -35.09375 12.113281 -33.269531 11.03125 -30.9375 C 9.957031 -28.601562 9.421875 -25.90625 9.421875 -22.84375 C 9.421875 -19.3125 10.046875 -16.113281 11.296875 -13.25 C 12.554688 -10.382812 14.34375 -8.109375 16.65625 -6.421875 C 18.976562 -4.734375 21.6875 -3.890625 24.78125 -3.890625 C 27.175781 -3.890625 29.34375 -4.335938 31.28125 -5.234375 C 33.226562 -6.140625 35.066406 -7.535156 36.796875 -9.421875 C 37.265625 -9.929688 37.6875 -10.113281 38.0625 -9.96875 C 38.4375 -9.832031 38.691406 -9.53125 38.828125 -9.0625 C 38.960938 -8.59375 38.851562 -8.066406 38.5 -7.484375 C 37.601562 -5.910156 36.3125 -4.515625 34.625 -3.296875 C 32.9375 -2.078125 31.039062 -1.125 28.9375 -0.4375 C 26.832031 0.25 24.664062 0.59375 22.4375 0.59375 Z M 22.4375 0.59375 "/></g></g></g><g fill="#ffffff" fill-opacity="1"><g transform="translate(481.971222, 54.980863)"><g><path d="M 30.734375 -11.359375 C 31.242188 -11.242188 31.554688 -10.988281 31.671875 -10.59375 C 31.785156 -10.207031 31.828125 -9.679688 31.796875 -9.015625 C 31.710938 -7.484375 31.59375 -6.1875 31.4375 -5.125 C 31.28125 -4.0625 31.082031 -3.097656 30.84375 -2.234375 C 30.65625 -1.492188 30.265625 -0.9375 29.671875 -0.5625 C 29.085938 -0.1875 27.867188 0 26.015625 0 L 5.234375 0 C 3.160156 0 2.125 -0.46875 2.125 -1.40625 C 2.125 -1.957031 2.28125 -2.359375 2.59375 -2.609375 C 2.90625 -2.867188 3.273438 -3.125 3.703125 -3.375 C 4.140625 -3.632812 4.539062 -3.988281 4.90625 -4.4375 C 5.28125 -4.894531 5.53125 -5.554688 5.65625 -6.421875 C 5.726562 -6.773438 5.773438 -7.132812 5.796875 -7.5 C 5.816406 -7.875 5.828125 -8.378906 5.828125 -9.015625 L 5.828125 -32.03125 C 5.828125 -33.757812 5.648438 -35.023438 5.296875 -35.828125 C 4.941406 -36.628906 4.519531 -37.195312 4.03125 -37.53125 C 3.539062 -37.863281 3.117188 -38.164062 2.765625 -38.4375 C 2.410156 -38.71875 2.234375 -39.171875 2.234375 -39.796875 C 2.234375 -40.347656 2.46875 -40.722656 2.9375 -40.921875 C 3.414062 -41.117188 4.222656 -41.21875 5.359375 -41.21875 L 13.25 -41.21875 C 15.332031 -41.21875 16.375 -40.742188 16.375 -39.796875 C 16.375 -39.171875 16.1875 -38.71875 15.8125 -38.4375 C 15.4375 -38.164062 15.003906 -37.863281 14.515625 -37.53125 C 14.023438 -37.195312 13.59375 -36.628906 13.21875 -35.828125 C 12.84375 -35.023438 12.65625 -33.757812 12.65625 -32.03125 L 12.65625 -6 C 12.65625 -5.019531 12.957031 -4.300781 13.5625 -3.84375 C 14.175781 -3.394531 15.503906 -3.171875 17.546875 -3.171875 L 20.71875 -3.234375 C 22.25 -3.234375 23.457031 -3.445312 24.34375 -3.875 C 25.226562 -4.3125 25.941406 -4.960938 26.484375 -5.828125 C 27.035156 -6.691406 27.609375 -7.769531 28.203125 -9.0625 C 28.671875 -10.082031 29.097656 -10.738281 29.484375 -11.03125 C 29.878906 -11.332031 30.296875 -11.441406 30.734375 -11.359375 Z M 30.734375 -11.359375 "/></g></g></g><g fill="#ffffff" fill-opacity="1"><g transform="translate(515.119958, 54.980863)"><g><path d="M 5.828125 -9.1875 L 5.828125 -32.03125 C 5.828125 -33.757812 5.648438 -35.023438 5.296875 -35.828125 C 4.941406 -36.628906 4.519531 -37.195312 4.03125 -37.53125 C 3.539062 -37.863281 3.117188 -38.164062 2.765625 -38.4375 C 2.410156 -38.71875 2.234375 -39.171875 2.234375 -39.796875 C 2.234375 -40.347656 2.46875 -40.722656 2.9375 -40.921875 C 3.414062 -41.117188 4.222656 -41.21875 5.359375 -41.21875 L 13.25 -41.21875 C 15.332031 -41.21875 16.375 -40.742188 16.375 -39.796875 C 16.375 -39.171875 16.1875 -38.71875 15.8125 -38.4375 C 15.4375 -38.164062 15.003906 -37.863281 14.515625 -37.53125 C 14.023438 -37.195312 13.59375 -36.628906 13.21875 -35.828125 C 12.84375 -35.023438 12.65625 -33.757812 12.65625 -32.03125 L 12.65625 -9.1875 C 12.65625 -7.457031 12.832031 -6.191406 13.1875 -5.390625 C 13.539062 -4.585938 13.960938 -4.015625 14.453125 -3.671875 C 14.941406 -3.335938 15.363281 -3.035156 15.71875 -2.765625 C 16.070312 -2.492188 16.25 -2.039062 16.25 -1.40625 C 16.25 -0.894531 16.015625 -0.53125 15.546875 -0.3125 C 15.078125 -0.101562 14.269531 0 13.125 0 L 5.234375 0 C 3.160156 0 2.125 -0.46875 2.125 -1.40625 C 2.125 -2.039062 2.304688 -2.492188 2.671875 -2.765625 C 3.046875 -3.035156 3.476562 -3.335938 3.96875 -3.671875 C 4.457031 -4.015625 4.890625 -4.585938 5.265625 -5.390625 C 5.640625 -6.191406 5.828125 -7.457031 5.828125 -9.1875 Z M 5.828125 -9.1875 "/></g></g></g><g fill="#ffffff" fill-opacity="1"><g transform="translate(533.60785, 54.980863)"><g><path d="M 22.4375 0.59375 C 18.46875 0.59375 14.960938 -0.226562 11.921875 -1.875 C 8.878906 -3.53125 6.515625 -5.878906 4.828125 -8.921875 C 3.140625 -11.960938 2.296875 -15.546875 2.296875 -19.671875 C 2.296875 -22.765625 2.832031 -25.644531 3.90625 -28.3125 C 4.988281 -30.988281 6.488281 -33.335938 8.40625 -35.359375 C 10.332031 -37.378906 12.59375 -38.957031 15.1875 -40.09375 C 17.78125 -41.226562 20.566406 -41.796875 23.546875 -41.796875 C 25.472656 -41.796875 27.039062 -41.609375 28.25 -41.234375 C 29.46875 -40.867188 30.453125 -40.6875 31.203125 -40.6875 C 31.910156 -40.6875 32.429688 -40.851562 32.765625 -41.1875 C 33.097656 -41.519531 33.554688 -41.6875 34.140625 -41.6875 C 34.691406 -41.6875 35.113281 -41.488281 35.40625 -41.09375 C 35.707031 -40.695312 36.050781 -39.875 36.4375 -38.625 C 36.757812 -37.519531 37.066406 -36.335938 37.359375 -35.078125 C 37.648438 -33.828125 37.929688 -32.414062 38.203125 -30.84375 C 38.285156 -30.101562 38.25 -29.546875 38.09375 -29.171875 C 37.9375 -28.796875 37.582031 -28.570312 37.03125 -28.5 C 36.5625 -28.457031 36.148438 -28.625 35.796875 -29 C 35.441406 -29.375 34.972656 -29.988281 34.390625 -30.84375 C 32.773438 -33.320312 31.035156 -35.195312 29.171875 -36.46875 C 27.304688 -37.75 25.039062 -38.390625 22.375 -38.390625 C 19.78125 -38.390625 17.507812 -37.726562 15.5625 -36.40625 C 13.625 -35.09375 12.113281 -33.269531 11.03125 -30.9375 C 9.957031 -28.601562 9.421875 -25.90625 9.421875 -22.84375 C 9.421875 -19.3125 10.046875 -16.113281 11.296875 -13.25 C 12.554688 -10.382812 14.34375 -8.109375 16.65625 -6.421875 C 18.976562 -4.734375 21.6875 -3.890625 24.78125 -3.890625 C 27.175781 -3.890625 29.34375 -4.335938 31.28125 -5.234375 C 33.226562 -6.140625 35.066406 -7.535156 36.796875 -9.421875 C 37.265625 -9.929688 37.6875 -10.113281 38.0625 -9.96875 C 38.4375 -9.832031 38.691406 -9.53125 38.828125 -9.0625 C 38.960938 -8.59375 38.851562 -8.066406 38.5 -7.484375 C 37.601562 -5.910156 36.3125 -4.515625 34.625 -3.296875 C 32.9375 -2.078125 31.039062 -1.125 28.9375 -0.4375 C 26.832031 0.25 24.664062 0.59375 22.4375 0.59375 Z M 22.4375 0.59375 "/></g></g></g><g fill="#ffffff" fill-opacity="1"><g transform="translate(574.351966, 54.980863)"><g><path d="M 32.09375 -34.796875 L 27.140625 -30.203125 L 37.5 -7.234375 C 38.050781 -6.097656 38.597656 -5.253906 39.140625 -4.703125 C 39.691406 -4.160156 40.210938 -3.75 40.703125 -3.46875 C 41.203125 -3.195312 41.597656 -2.921875 41.890625 -2.640625 C 42.179688 -2.367188 42.328125 -1.957031 42.328125 -1.40625 C 42.328125 -0.46875 41.445312 0 39.6875 0 L 31.96875 0 C 30.875 0 30.078125 -0.101562 29.578125 -0.3125 C 29.085938 -0.53125 28.84375 -0.9375 28.84375 -1.53125 C 28.84375 -1.957031 28.976562 -2.316406 29.25 -2.609375 C 29.53125 -2.910156 29.828125 -3.226562 30.140625 -3.5625 C 30.453125 -3.894531 30.644531 -4.328125 30.71875 -4.859375 C 30.800781 -5.390625 30.628906 -6.125 30.203125 -7.0625 L 22.140625 -25.5 L 12.65625 -16.71875 L 12.65625 -9.1875 C 12.65625 -7.457031 12.832031 -6.191406 13.1875 -5.390625 C 13.539062 -4.585938 13.960938 -4.015625 14.453125 -3.671875 C 14.941406 -3.335938 15.363281 -3.035156 15.71875 -2.765625 C 16.070312 -2.492188 16.25 -2.039062 16.25 -1.40625 C 16.25 -0.894531 16.015625 -0.53125 15.546875 -0.3125 C 15.078125 -0.101562 14.269531 0 13.125 0 L 5.234375 0 C 3.160156 0 2.125 -0.46875 2.125 -1.40625 C 2.125 -2.039062 2.304688 -2.492188 2.671875 -2.765625 C 3.046875 -3.035156 3.476562 -3.335938 3.96875 -3.671875 C 4.457031 -4.015625 4.890625 -4.585938 5.265625 -5.390625 C 5.640625 -6.191406 5.828125 -7.457031 5.828125 -9.1875 L 5.828125 -32.03125 C 5.828125 -33.757812 5.648438 -35.023438 5.296875 -35.828125 C 4.941406 -36.628906 4.519531 -37.195312 4.03125 -37.53125 C 3.539062 -37.863281 3.117188 -38.164062 2.765625 -38.4375 C 2.410156 -38.71875 2.234375 -39.171875 2.234375 -39.796875 C 2.234375 -40.347656 2.46875 -40.722656 2.9375 -40.921875 C 3.414062 -41.117188 4.222656 -41.21875 5.359375 -41.21875 L 13.25 -41.21875 C 15.332031 -41.21875 16.375 -40.742188 16.375 -39.796875 C 16.375 -39.171875 16.1875 -38.71875 15.8125 -38.4375 C 15.4375 -38.164062 15.003906 -37.863281 14.515625 -37.53125 C 14.023438 -37.195312 13.59375 -36.628906 13.21875 -35.828125 C 12.84375 -35.023438 12.65625 -33.757812 12.65625 -32.03125 L 12.65625 -21.1875 L 27.03125 -34.796875 C 27.851562 -35.578125 28.289062 -36.179688 28.34375 -36.609375 C 28.40625 -37.046875 28.257812 -37.398438 27.90625 -37.671875 C 27.550781 -37.953125 27.1875 -38.238281 26.8125 -38.53125 C 26.445312 -38.820312 26.265625 -39.222656 26.265625 -39.734375 C 26.265625 -40.285156 26.457031 -40.671875 26.84375 -40.890625 C 27.238281 -41.109375 27.789062 -41.21875 28.5 -41.21875 L 35.5 -41.21875 C 37.582031 -41.21875 38.625 -40.742188 38.625 -39.796875 C 38.625 -39.210938 38.472656 -38.800781 38.171875 -38.5625 C 37.878906 -38.320312 37.445312 -38.09375 36.875 -37.875 C 36.3125 -37.664062 35.628906 -37.332031 34.828125 -36.875 C 34.023438 -36.425781 33.113281 -35.734375 32.09375 -34.796875 Z M 32.09375 -34.796875 "/></g></g></g><g fill="#ffffff" fill-opacity="1"><g transform="translate(616.6269, 54.980863)"><g><path d="M 17.78125 0.59375 C 15.582031 0.59375 13.832031 0.429688 12.53125 0.109375 C 11.238281 -0.203125 10.179688 -0.359375 9.359375 -0.359375 C 8.578125 -0.359375 8.023438 -0.203125 7.703125 0.109375 C 7.390625 0.429688 6.960938 0.59375 6.421875 0.59375 C 5.910156 0.59375 5.46875 0.367188 5.09375 -0.078125 C 4.71875 -0.535156 4.429688 -1.394531 4.234375 -2.65625 C 4.035156 -3.832031 3.828125 -5.097656 3.609375 -6.453125 C 3.398438 -7.804688 3.21875 -9.34375 3.0625 -11.0625 C 3.019531 -11.726562 3.066406 -12.273438 3.203125 -12.703125 C 3.347656 -13.140625 3.675781 -13.359375 4.1875 -13.359375 C 4.65625 -13.359375 5.066406 -13.179688 5.421875 -12.828125 C 5.773438 -12.484375 6.164062 -11.914062 6.59375 -11.125 C 7.1875 -9.945312 7.960938 -8.707031 8.921875 -7.40625 C 9.878906 -6.113281 11.132812 -5.015625 12.6875 -4.109375 C 14.238281 -3.210938 16.148438 -2.765625 18.421875 -2.765625 C 20.941406 -2.722656 22.789062 -3.347656 23.96875 -4.640625 C 25.144531 -5.941406 25.75 -7.378906 25.78125 -8.953125 C 25.863281 -10.484375 25.414062 -11.765625 24.4375 -12.796875 C 23.457031 -13.835938 22.191406 -14.769531 20.640625 -15.59375 C 19.085938 -16.425781 17.488281 -17.234375 15.84375 -18.015625 C 14.269531 -18.796875 12.765625 -19.5625 11.328125 -20.3125 C 9.898438 -21.0625 8.613281 -21.894531 7.46875 -22.8125 C 6.332031 -23.738281 5.441406 -24.816406 4.796875 -26.046875 C 4.148438 -27.285156 3.828125 -28.789062 3.828125 -30.5625 C 3.828125 -32.5625 4.394531 -34.40625 5.53125 -36.09375 C 6.664062 -37.78125 8.300781 -39.132812 10.4375 -40.15625 C 12.582031 -41.175781 15.128906 -41.6875 18.078125 -41.6875 C 19.453125 -41.6875 20.695312 -41.566406 21.8125 -41.328125 C 22.925781 -41.097656 23.859375 -40.984375 24.609375 -40.984375 C 25.316406 -40.984375 25.828125 -41.097656 26.140625 -41.328125 C 26.453125 -41.566406 26.863281 -41.6875 27.375 -41.6875 C 27.925781 -41.6875 28.359375 -41.488281 28.671875 -41.09375 C 28.984375 -40.695312 29.28125 -39.875 29.5625 -38.625 C 29.75 -37.644531 29.960938 -36.59375 30.203125 -35.46875 C 30.441406 -34.351562 30.640625 -33.109375 30.796875 -31.734375 C 30.867188 -31.066406 30.828125 -30.515625 30.671875 -30.078125 C 30.515625 -29.648438 30.160156 -29.4375 29.609375 -29.4375 C 28.867188 -29.4375 28.023438 -30.160156 27.078125 -31.609375 C 26.453125 -32.597656 25.65625 -33.617188 24.6875 -34.671875 C 23.726562 -35.734375 22.617188 -36.632812 21.359375 -37.375 C 20.109375 -38.125 18.660156 -38.5 17.015625 -38.5 C 14.859375 -38.5 13.207031 -37.957031 12.0625 -36.875 C 10.925781 -35.800781 10.359375 -34.441406 10.359375 -32.796875 C 10.359375 -31.421875 10.757812 -30.257812 11.5625 -29.3125 C 12.375 -28.375 13.515625 -27.503906 14.984375 -26.703125 C 16.453125 -25.898438 18.148438 -25.003906 20.078125 -24.015625 C 21.722656 -23.191406 23.300781 -22.40625 24.8125 -21.65625 C 26.320312 -20.914062 27.664062 -20.09375 28.84375 -19.1875 C 30.019531 -18.289062 30.972656 -17.242188 31.703125 -16.046875 C 32.429688 -14.847656 32.816406 -13.40625 32.859375 -11.71875 C 32.929688 -9.164062 32.25 -6.96875 30.8125 -5.125 C 29.382812 -3.28125 27.507812 -1.875 25.1875 -0.90625 C 22.875 0.0507812 20.40625 0.550781 17.78125 0.59375 Z M 17.78125 0.59375 "/></g></g></g></g></g></svg>